<svg id="visual" viewBox="0 0 900 600" width="900" height="600" xmlns="http://www.w3.org/2000/svg" xmlns:xlink="http://www.w3.org/1999/xlink" version="1.1"><rect x="0" y="0" width="900" height="600" fill="#1c0043"></rect><path d="M388 0L326 0L326 55L374 55L374 109L298 109L298 164L378 164L378 218L321 218L321 273L349 273L349 327L318 327L318 382L290 382L290 436L399 436L399 491L313 491L313 545L309 545L309 600L0 600L0 545L0 545L0 491L0 491L0 436L0 436L0 382L0 382L0 327L0 327L0 273L0 273L0 218L0 218L0 164L0 164L0 109L0 109L0 55L0 55L0 0L0 0Z" fill="#560090"></path><path d="M269 0L197 0L197 55L242 55L242 109L200 109L200 164L248 164L248 218L197 218L197 273L247 273L247 327L221 327L221 382L220 382L220 436L224 436L224 491L215 491L215 545L193 545L193 600L0 600L0 545L0 545L0 491L0 491L0 436L0 436L0 382L0 382L0 327L0 327L0 273L0 273L0 218L0 218L0 164L0 164L0 109L0 109L0 55L0 55L0 0L0 0Z" fill="#7700c6"></path><path d="M137 0L102 0L102 55L103 55L103 109L127 109L127 164L117 164L117 218L131 218L131 273L150 273L150 327L171 327L171 382L145 382L145 436L168 436L168 491L142 491L142 545L97 545L97 600L0 600L0 545L0 545L0 491L0 491L0 436L0 436L0 382L0 382L0 327L0 327L0 273L0 273L0 218L0 218L0 164L0 164L0 109L0 109L0 55L0 55L0 0L0 0Z" fill="#9900ff"></path></svg>